HIERARCHY
ROOT Hips
{
	OFFSET -3.958830 18.904000 13.208200
	CHANNELS 6 Xposition Yposition Zposition Zrotation Yrotation Xrotation 
	JOINT LHipJoint
	{
		OFFSET 0.000000 0.000000 0.000000
		CHANNELS 3 Zrotation Yrotation Xrotation
		JOINT LeftUpLeg
		{
			OFFSET 1.800000 -1.400000 0.085000
			CHANNELS 3 Zrotation Yrotation Xrotation
			JOINT LeftLeg
			{
				OFFSET 2.215000 -6.000000 0.000000
				CHANNELS 3 Zrotation Yrotation Xrotation
				JOINT LeftFoot
				{
					OFFSET 2.500000 -6.900000 0.000000
					CHANNELS 3 Zrotation Yrotation Xrotation
					JOINT LeftToeBase
					{
						OFFSET 0.200000 -0.500000 1.950000
						CHANNELS 3 Zrotation Yrotation Xrotation
						End Site
						{
							OFFSET 0.000000 0.000000 0.000000
						}
					}
				}
			}
		}
	}
	JOINT RHipJoint
	{
		OFFSET 0.000000 0.000000 0.000000
		CHANNELS 3 Zrotation Yrotation Xrotation
		JOINT RightUpLeg
		{
			OFFSET -1.800000 -1.400000 0.085000
			CHANNELS 3 Zrotation Yrotation Xrotation
			JOINT RightLeg
			{
				OFFSET -2.215000 -6.000000 0.000000
				CHANNELS 3 Zrotation Yrotation Xrotation
				JOINT RightFoot
				{
					OFFSET -2.500000 -6.900000 0.000000
					CHANNELS 3 Zrotation Yrotation Xrotation
					JOINT RightToeBase
					{
						OFFSET -0.200000 -0.500000 1.950000
						CHANNELS 3 Zrotation Yrotation Xrotation
						End Site
						{
							OFFSET 0.000000 0.000000 0.000000
						}
					}
				}
			}
		}
	}
	JOINT LowerBack
	{
		OFFSET 0.000000 0.000000 0.000000
		CHANNELS 3 Zrotation Yrotation Xrotation
		JOINT Spine
		{
			OFFSET -0.087000 1.940000 -0.288900
			CHANNELS 3 Zrotation Yrotation Xrotation
			JOINT Spine1
			{
				OFFSET 0.000000 1.950000 0.060000
				CHANNELS 3 Zrotation Yrotation Xrotation
				JOINT Neck
				{
					OFFSET 0.000000 0.000000 0.000000
					CHANNELS 3 Zrotation Yrotation Xrotation
					JOINT Neck1
					{
						OFFSET 0.000000 1.600000 0.340000
						CHANNELS 3 Zrotation Yrotation Xrotation
						JOINT Head
						{
							OFFSET 0.000000 1.667000 -0.240000
							CHANNELS 3 Zrotation Yrotation Xrotation
							End Site
							{
								OFFSET 0.000000 0.000000 0.000000
							}
						}
					}
				}
				JOINT LeftShoulder
				{
					OFFSET 0.000000 0.000000 0.000000
					CHANNELS 3 Zrotation Yrotation Xrotation
					JOINT LeftArm
					{
						OFFSET 2.700000 1.550000 -0.730000
						CHANNELS 3 Zrotation Yrotation Xrotation
						JOINT LeftForeArm
						{
							OFFSET 5.450000 0.000000 0.000000
							CHANNELS 3 Zrotation Yrotation Xrotation
							JOINT LeftHand
							{
								OFFSET 3.450000 0.000000 0.000000
								CHANNELS 3 Zrotation Yrotation Xrotation
								JOINT LeftHandIndex1
								{
									OFFSET 0.750000 0.000000 0.000000
									CHANNELS 3 Zrotation Yrotation Xrotation
									End Site
									{
										OFFSET 0.000000 0.000000 0.000000
									}
								}
							}
						}
					}
				}
				JOINT RightShoulder
				{
					OFFSET 0.000000 0.000000 0.000000
					CHANNELS 3 Zrotation Yrotation Xrotation
					JOINT RightArm
					{
						OFFSET -2.700000 1.550000 -0.730000
						CHANNELS 3 Zrotation Yrotation Xrotation
						JOINT RightForeArm
						{
							OFFSET -5.450000 0.000000 0.000000
							CHANNELS 3 Zrotation Yrotation Xrotation
							JOINT RightHand
							{
								OFFSET -3.450000 0.000000 0.000000
								CHANNELS 3 Zrotation Yrotation Xrotation
								JOINT RightHandIndex1
								{
									OFFSET -0.750000 0.000000 0.000000
									CHANNELS 3 Zrotation Yrotation Xrotation
									End Site
									{
										OFFSET 0.000000 0.000000 0.000000
									}
								}
							}
						}
					}
				}
			}
		}
	}
}
MOTION
Frames: 7
Frame Time: 0.016667
0.446270 16.703620 -4.784470 4.729929 22.465758 -4.476205 -14.717398 13.301586 3.066291 1.722164 -1.866724 -14.206574 -2.967243 4.778197 16.122136 0.225588 2.727666 3.614928 0.887880 0.610200 0.799440 18.254606 -12.009784 3.171737 -19.764186 5.913012 -15.550947 13.388132 -8.390400 27.442007 -0.701599 -5.000402 2.434690 0.022340 -0.526080 0.246460 -5.210303 0.918428 -8.050804 26.871557 -6.229025 31.206670 -22.499867 1.966695 7.761202 12.706027 -6.424105 -16.246043 -11.079733 -0.414910 62.961157 -3.603840 -10.587880 -23.478300 -42.486120 -14.788556 4.282065 -40.908789 13.832659 -8.611749 -4.449806 -5.093174 -0.968273 -2.549620 3.204283 0.490220 -0.575970 0.527090 0.197940 15.936860 28.817173 12.422053 34.580951 30.529524 -14.942364 -111.541866 27.889013 -58.121899 2.610785 -1.580230 0.447640 -0.160150 -0.580650 0.036460 
0.439980 16.722630 -4.824050 4.399834 21.983864 -3.779085 -14.709426 13.282453 3.072855 2.231836 -2.015576 -16.436151 -2.870379 4.874741 17.253944 0.245283 2.735342 3.617932 0.838230 0.552700 0.753860 18.263401 -12.056884 3.155803 -18.757072 5.863429 -16.726003 12.015759 -7.769000 27.006902 -0.614531 -4.708042 2.568885 -0.015260 -0.474310 0.238990 -5.190712 0.974602 -8.029135 26.859880 -6.548280 31.954435 -22.072595 2.064397 7.078626 12.078174 -7.345990 -15.837549 -13.080238 -0.072166 59.625935 -1.911860 -10.599240 -22.187050 -40.119551 -14.080005 4.348045 -43.800109 12.878677 -10.128566 -5.367796 -7.686687 -1.009723 -2.584315 3.253797 0.457880 -0.543760 0.483070 0.206290 14.906257 28.834219 12.232766 33.649189 30.011580 -15.058850 -111.014405 28.606166 -58.337988 2.629154 -1.577326 0.434640 -0.167360 -0.570050 0.048900 
0.431710 16.746760 -4.872170 3.012728 20.756475 -3.186871 -14.700245 13.279862 3.060392 3.846654 -1.905955 -19.462984 -3.021308 5.143381 18.682165 0.282932 2.822188 3.570218 0.813540 0.530460 0.725220 18.282921 -12.011685 3.185838 -16.888325 6.142329 -17.894735 11.142432 -7.109448 26.126879 -0.546433 -4.373359 2.704838 -0.034280 -0.452330 0.246950 -5.137384 0.925118 -8.006203 27.633224 -6.968885 32.926286 -21.419255 2.349917 6.292146 11.395481 -7.971060 -15.277427 -14.561703 -0.205812 55.209619 -0.727570 -10.265730 -21.308500 -37.689334 -13.635237 4.413760 -46.414349 11.731958 -11.114190 -7.680561 -9.036987 -1.054438 -2.621778 3.301904 0.418110 -0.518560 0.458610 0.218840 13.880605 28.818588 11.785308 32.434139 29.389452 -15.176368 -110.386851 29.928963 -59.095304 2.652372 -1.595661 0.441530 -0.204030 -0.580620 0.061620 
0.408220 16.757010 -4.920040 1.198227 19.154002 -2.686452 -14.731930 13.305991 3.085969 6.029130 -1.486782 -22.745497 -3.156592 5.512946 20.047521 0.312652 3.015231 3.476906 0.778870 0.495340 0.715350 18.272211 -11.867184 3.239022 -14.528844 6.682264 -19.022028 10.409028 -6.487702 25.383450 -0.488985 -4.041999 2.838277 -0.059030 -0.431040 0.265890 -4.962591 0.702605 -8.033216 27.758801 -6.851522 34.578630 -19.844677 3.127059 5.246352 10.710375 -7.526693 -14.658491 -13.630377 -1.415041 50.651903 -0.696560 -9.407510 -21.155700 -35.297274 -13.434052 4.598887 -48.779340 10.865291 -11.981718 -10.542904 -9.869442 -1.135932 -2.700395 3.306787 0.389780 -0.483720 0.442770 0.212960 12.835762 28.475326 11.107757 31.324898 28.861185 -15.267865 -110.019909 30.610521 -59.405967 2.660445 -1.609929 0.440630 -0.230540 -0.577240 0.060120 
0.369470 16.747040 -4.967980 -0.882996 17.497509 -1.862356 -14.799185 13.231826 3.205406 8.640031 -0.872818 -26.903009 -3.350621 6.125715 21.912153 0.302569 3.423048 3.297872 0.719840 0.423180 0.685530 18.264740 -11.586585 3.321944 -12.079554 7.524514 -20.360563 10.287977 -6.065163 24.813733 -0.419454 -3.794259 2.955827 -0.077160 -0.387960 0.260710 -4.731303 0.422029 -8.141050 27.242158 -6.267390 36.074036 -17.470820 4.271613 4.245537 9.909298 -7.026331 -14.294580 -12.308764 -2.427411 46.196143 -0.677730 -8.390910 -20.181000 -32.151355 -13.098037 4.781534 -51.207078 10.074451 -12.879627 -14.528541 -10.405209 -1.295253 -2.822766 3.266573 0.382600 -0.430520 0.392590 0.193780 11.307653 28.265439 10.650015 30.289581 28.521814 -15.546674 -109.890301 30.177136 -58.859388 2.635442 -1.632292 0.391890 -0.232430 -0.542420 0.031960 
0.311500 16.738990 -5.008910 -2.858948 15.885646 -1.535409 -14.931928 13.192518 3.411724 11.281733 0.041648 -30.825897 -3.304359 6.894715 24.145874 0.366676 3.967602 3.057950 0.697520 0.390520 0.694850 18.214900 -11.194062 3.339750 -9.635761 8.136159 -20.520723 10.508079 -5.679011 23.716447 -0.391765 -3.545644 3.059194 -0.103140 -0.394720 0.274950 -4.356808 -0.168077 -8.304211 25.530181 -5.493642 38.505513 -14.213993 5.603158 3.365832 8.983200 -6.398608 -14.669264 -11.063138 -3.203267 43.201919 -0.707590 -7.393660 -19.718250 -28.560299 -13.675495 5.578066 -53.861074 9.989048 -14.483497 -19.403307 -11.640147 -1.469390 -2.896554 3.283618 0.380440 -0.415170 0.391090 0.178000 9.702677 29.077926 10.501150 28.858458 27.719083 -16.737202 -109.816557 29.072295 -57.753131 2.652811 -1.681829 0.391880 -0.265770 -0.541050 0.014370 
0.248960 16.745020 -5.045670 -4.754419 14.046961 -2.767355 -15.164226 13.481532 3.567067 13.789589 1.543384 -33.007077 -2.620380 7.631537 26.389305 0.474381 4.522646 2.794413 0.721350 0.407120 0.737600 18.055096 -10.704278 3.246906 -6.924881 8.211826 -18.459014 10.386959 -5.169676 22.082094 -0.413134 -3.261654 3.163626 -0.132490 -0.483440 0.299560 -3.702697 -1.487736 -8.443816 22.370438 -4.528105 43.242976 -10.123392 7.372133 2.368173 8.556646 -6.265296 -15.762686 -11.200057 -3.492346 42.856096 -0.468650 -6.920600 -21.743490 -25.617186 -14.989858 6.515040 -56.212228 10.255288 -16.537240 -25.216250 -12.470649 -1.798925 -2.878458 3.350442 0.417610 -0.472170 0.451790 0.158640 8.025606 31.517851 10.566311 25.909762 26.328495 -18.953945 -109.692500 26.728835 -55.032649 2.707340 -1.765319 0.439120 -0.334790 -0.569950 -0.000750 
